<svg width="600" height="323" version="1.1" viewBox="0 0 600 323" xmlns="http://www.w3.org/2000/svg">
 <g id="Austrailia" stroke="#000" stroke-width="1.0016">
  <path d="m520.1 213.86c-0.26566 0.21721-0.14717 2.0718-0.16403 3.0458 0.0717 0.99647 0.42118 1.8809 0.3677 2.6467 0.30053 0.49076 0.36154 1.3058 0.2608 1.9324 1.0072-0.0151 1.1086-1.6426 2.0473-1.9087 0.81896-0.39122 1.6838-1.2409 2.673-0.73188 1.0904 0.24073 1.3202 1.5316 2.1764 2.0949 0.59909 0.83151 1.2056 1.6484 1.9275 2.3814 0.62289 1.0397 1.7632-0.0751 2.5022 0.6692 0.64722 0.76862 1.4593 0.34863 2.142-0.0937 0.37376-0.15851 0.61586-0.49643 0.0312-0.29036-0.50538 0.23487-1.0865 0.0678-0.7079-0.55026-0.21363-0.95758-1.4115-1.1106-1.9308-1.8709-0.82953-0.78567-1.7104-1.7016-1.8666-2.8802-0.38348-0.60733-1.2481-0.93638-1.1662-1.7499-0.38979-0.81224-1.188-1.425-1.37-2.286-0.57353-0.43623-1.5553-0.11408-1.8448-0.97535-0.63079-0.51863-1.6727-0.48228-2.0694-1.2902-0.63822-0.75107-2.7122-1.9217-3.0377-1.5175 0.42217 0.60967 0.12602 3.0646 0.0292 3.3744z"/>
  <path d="m496.77 233.31c3.3341 0.66573 2.1482-3.5205 3.8717-4.6902-0.0276-2.8824 4.3505-4.5031 6.6844-2.813 0.65379 1.3602 4.7018 0.24893 3.1864 2.9154-0.7977 1.6931-2.3129 4.4963 0.0763 5.6735 0.49454 2.6139 3.3847 3.4415 5.0066 4.828 1.9517-1.8045 2.4527-4.2182 2.971-6.8773 1.4465-2.1724-0.50278-6.2116 2.525-6.9798 1.525 2.3731 2.0621 5.2472 3.6473 7.5528 1.1405 2.4928 0.88892 5.437 2.0548 7.9368 1.7417 1.6583 3.2536 3.7748 4.7938 5.7348 0.9512 2.1966 3.8556 3.8809 5.7426 5.7543 1.3714 2.43 0.0674 5.3213 0.19252 7.9531-0.29837 3.7394-0.67415 7.1362-2.0837 10.547-1.6856 2.3426-1.9004 5.4719-3.1216 8.1151-1.2837 2.365-5.1548 1.4671-5.8965 4.5658-0.11268-2.4106-4.5036-3.3574-5.3711-1.1224-3.191 0.13772-4.9113-3.088-6.1739-5.7887-1.7387-1.9798-3.7902-3.3363-2.7726-6.3955-1.9229 0.11651-2.0117 5.0339-4.2697 2.3894-0.25953-2.7184-3.2714-3.2977-5.1252-4.3393-2.6685-2.206-6.4688-0.34107-9.299 0.0337-2.259 0.70035-4.4518 3.1861-7.0165 3.0969-1.4002-0.23796-1.8418 1.8422-3.7533 1.0312-1.3184 1.3832-4.0446 2.8067-6.0065 1.5837-1.9698-1.5873-1.5659-4.6003-1.6655-7.2147-0.8839-2.8927-1.4898-5.7827-2.8279-8.3644-0.96231-0.6821-2.1194-5.757-0.11001-3.1296 2.6638-1.9911-2.9495-4.8547 0.35434-7.1014 1.6051-2.7168 5.2733-2.6592 7.6086-4.2271 2.283-1.3446 5.333-2.3137 5.9187-5.2485 1.7934-0.75319-0.5926-5.0027 1.4296-2.2423 1.6971 0.40543 1.0314-2.6094 2.6743-2.7811 1.7242 0.24025 2.073-3.8216 3.867-1.6809 0.44468 0.59099 2.609 1.2476 2.9985 1.3066"/>
  <path d="m523.75 287.56c0.40618-0.0976 1.2117 0.26147 1.2792-0.33579 0.18794-0.35997 0.65781-0.33583 1.0036-0.4173 0.43747-0.0592 0.88001-0.033 1.3192-0.0125 0.6983 0.28574 1.5391 0.36052 2.0494 0.98102 0.3864 0.31329 0.16927 0.98365 0.70522 1.1349 0.51602 0.11734 0.35875 0.65857 4e-3 0.8639-0.3799 0.30121-0.56905 0.74762-0.72264 1.1923-0.11729 0.52176-0.81534 0.41264-0.8918 0.96393-0.0711 0.36348-0.33989 0.67699-0.72459 0.70088-0.44574 0.0699-0.86131-0.16326-1.3055-0.13798-0.39741-2.2e-4 -0.84149-0.14342-1.0087-0.53753-0.18662-0.38193-0.14267-0.82457-0.0675-1.229-0.10931-0.46956-0.90617-0.14725-0.91891-0.71817-0.17706-0.51738-0.40704-0.96039-0.13008-1.4828 0.17274 0.037-0.37528-0.54578-0.37528-0.54578s-0.42971-0.38791-0.32087-0.3692z"/>
 </g>
 <g id="Africa">
  <path d="m285.57 129.61c-3.4871 3.2255-9.7752 1.6286-13.109 2.6722-2.6914 4.1423-5.5006 6.6511-5.7567 11.726-3.2692 4.5426-7.2131 8.2018-10.009 13.017-1.2569 6.053-1.2 12.257-2.5764 18.315 2.7129 4.536 6.7273 8.8643 8.636 14.118 3.7381 6.5513 11.327 5.5584 17.96 4.091 5.5234-2.7033 9.7402-1.204 14.699 1.843 6.9474 0.57037 1.2572 10.495 4.9479 13.906 2.4628 5.1787 5.2439 9.8011 6.1649 15.559-0.95341 5.5015-6.016 11.02-2.2682 16.354 3.0913 5.4433 1.6965 12.279 5.0827 17.307 1.9295 3.9195 5.3464 9.9071 2.4905 12.469 4.3493 4.1673 8.8456 1.9126 13.841 0.78956 5.6343-0.71211 9.9804-6.6863 11.043-12.166 1.0058-3.16 2.6791-8.1778 6.1141-9.0515-0.68513-4.6879-2.7453-9.7388 2.8376-11.36 5.907-3.5849 6.0307-10.682 4.6421-16.828-2.9666-5.6279-1.924-12.668 3.2292-16.51 2.8341-5.0412 8.9641-7.4578 10.603-13.039 1.5338-3.488 6.1466-10.404 4.5596-12.531-4.8098-0.5489-11.186 4.8154-14.206-2.0785-2.8176-5.0632-8.0615-9.3717-8.7207-14.96-0.61373-5.5236-3.9427-10.662-6.6068-15.592 0.7661-7.6698-6.1355-7.3207-11.567-7.6987-4.7475-3.1011-10.3-4.1935-12.3 2.4473-4.9393-1.3962-8.7931-3.6828-12.803-6.3916-0.83066-3.3213-0.84942-10.102-6.8975-7.7077-3.4524 0.51945-6.6496 0.61386-10.03 1.3015z"/>
  <path d="m365.52 227.58c-0.95981 1.5642-1.7299 3.3817-3.2601 4.4777-1.2002 0.68843-2.0937 1.7786-2.8582 2.9034-1.1366 1.1207-2.7036 2.194-2.7569 3.9557-0.12607 1.6438 1.0519 3.342 0.16443 4.9177-0.85293 1.3186-1.9352 2.7054-1.7402 4.3771-1e-5 1.5174 0.93023 2.7856 1.6034 4.066 0.34843 1.1816 1.3104 2.8727 2.7854 2.3228 1.0255-0.52031 2.0192-1.2689 2.607-2.2758 0.55478-1.3409 1.4755-2.5883 1.5704-4.0757-0.20182-0.93877-0.0561-1.9092 0.50839-2.7051 0.48786-0.73689 0.81315-1.5774 0.7843-2.4708 0.12392-1.3827 0.63471-2.6839 1.1599-3.9511 0.41381-1.597 0.41064-3.2977 1.1076-4.8187 0.34019-1.4068-0.76403-2.6592-0.59493-4.064-0.0182-0.98492-0.4657-1.9085-1.0805-2.6594z"/>
 </g>
 <g id="Asia" style="">
  <path d="m357.9 116.55c0.21705 0.0666 2.2393 1.8374 3.9041 2.7112 1.9832 0.59475 3.6278 2.0906 4.3453 3.4979-0.47019 1.5291-0.92517 4.1921 0.81024 4.4198 0.18597 1.0635 1.3824 1.173 1.4732 2.2099 1.3402 0.44995 2.4197-1.6546 4.1617-0.8103 1.9363-0.68073 1.1008-4.407 0.66286-6.0771-1.9182-0.46853-1.5187-2.3267 0.25773-2.3942 0.74141-1.6943-0.71863-3.9462-2.0258-2.504-0.99806 1.6872-0.47117-2.1826-1.7311-2.173-0.41453-1.4112-1.6529-2.534-1.1417-3.9779 0.94647-0.60296 0.46152-2.3872 2.2098-2.0995 0.54922-0.56648 1.0122-2.5712 0.53408-3.0018 1.4636-0.0477 1.7476-2.2006 3.0153-2.9387 0.27281-2.4953 1.7303-3.3251 2.9167-5.2083 0.30006-3.1306-1.2455-7.3017 0.95013-9.6749 2.8594-1.7993 3.3729-1.9925 4.8579-3.7342 2.0527-3.0736 1.9906-5.8324 2.0802-6.9887 0.0616-3.1391 0.099-6.1484 1.5984-8.423 0.6733-2.7086 0.5566-4.388 0.65219-8.8875 0.53459-3.9665 0.0242-5.8683-1.2847-7.8125-0.59229-1.6225-1.6585-3.5642-0.0521-4.5833 0.99128-1.2317 4.0696-0.95053 4.7917 0.20833 3.5081-0.41453 3.6298 2.9593 7.0312 2.1354 0.51678-1.3442 1.1817-2.3307-0.36459-2.8646-0.5896-1.141-1.7732-1.6954-2.3438-2.7604-0.87726-0.68924-0.41652-1.6251 0.26042-2.4479 0.84025-2.0664 4.1292-2.3483 4.4271-5.2083 1.3594-0.54439 3.517 0.0064 3.6458 1.5104 1.0095 1.2477-0.98774 2.7393 0.10416 4.4271-0.27707 2.4795 2.0545 3.9207 0.83334 6.25-0.0213 2.0717-0.49572 3.7623-0.9375 5.496 0.9465 1.9499-1.8864 1.6864-1.0417 2.2123 2.9265 0.79745 2.4441-2.5346 4.1667-3.4896-0.0466-1.3677 0.91787-2.0816 1.1458-3.5417 0.4402-0.93157 3.9999-0.66837 1.875-1.5625-1.3778-0.81472-3.5498-0.85964-3.125-3.6458-0.34039-1.1488-1.7438-3.436-0.0521-4.0104 0.20706-1.2546 1.6849-3.9083 2.2396-1.1979-0.0171 2.4777 2.6789-0.62959 2.9688 1.4062 2.0805 0.48319 1.0317-2.6776 1.8229-2.8646 1.6417 0.77084 2.6988 2.905 4.8438 1.7188 1.3787-1.254-2.5581-2.056-0.67709-3.4896 1.6059-0.60455 3.7873-0.69232 4.3229-2.5 0.0967 1.9738 2.5051 2.7208 4.1667 1.5625 1.3386-0.35946 1.5162-2.1884 1.9271-3.4896 2.1815-1.5507 6.4062-0.14016 8.2292-2.0833 3.003-1.5492 7.0202-0.30584 10.833-0.88541 1.5992-1.3905 4.9094-0.60713 5.625-2.8646 0.55787-1.778 2.4198-2.5152 3.75-3.4896 2.2807-1.1947 2.6091 2.5349 2.2396 2.7083 1.045 1.6604 3.8963 0.86322 5.8333 0.625 1.6502 1.4087 5.585-0.35502 5.9896 2.0833 2.3326-0.18226 1.3791 3.176 0.41667 3.9062-1.212 1.3668-3.9009-0.1731-5.3125 0.9375-1.4621 1.3722-3.3174 2.578-4.9479 3.9062 0.44597 2.3244 4.2383 1.1973 4.7917-0.10417 0.65338-0.90176 2.1269-0.89504 2.4479-2.0833 2.28-0.19317 3.8335 0.14915 4.6875 1.5104 2.6061 0.3539 5.3198-1.9634 6.9271-0.10417 1.1034 0.26813 2.2224 0.52065 2.7083 1.4062 3.4089 0.38678 5.2589-0.99276 8.0729-1.4062 1.0478-1.0029 3.1074-1.0704 4.5833-0.26042 2.2292-0.38742 3.1457 2.3838 1.4583 3.2292-1.4119 0.57743-1.0377 0.52259-0.0521 1.3021 2.3896 0.35488 1.8568 3.479 4.3229 3.8021 0.3373 0.81698 3.4711 1.2156 2.9688-0.625 0.46362-2.8816 3.3074-0.05815 5.4688-0.9375 0.76168 0.53047 3.948-0.56794 5.4688 0.10416 3.6341 0.92719 2.1323-3.1819 2.5-4.5312 2.8925-0.68631-0.95968-4.0139 1.4062-5.2083 0.74394-1.5166-2.1759-2.1062-2.5521-0.78125-2.2345 0.27624-4.0809-0.68125-3.5417-3.125 1.8826 0.56833 1.938-3.0865 3.3854-1.1979 0.42017 1.9442 3.8024 1.4812 4.7917 0.57292 1.7058-0.64647 5.7195 0.31341 3.6979 1.9271-2.1102-0.46219-3.5063 0.29795-3.9062 1.9271-2.1111 0.19518-0.20255 2.0965 0.20833 2.7604 2.2647-0.089 1.4302 2.4268-0.20833 2.4479-0.403 0.93222-3.5875 0.36522-1.3542 0.78125 2.0091 0.56197 5.0848-0.19217 5.3646 1.9792 1.8648 1.1809 5.1086 0.34016 6.5104-0.625 3.0345-0.04192 2.0947 3.7601 4.7917 3.8542 2.4037 1.9623 7.091 0.04762 10.573 0.78125 1.6736 0.27178 3.549 0.41309 3.2292 2.6042 1.0772 1.5752 4.1482 0.59807 5.8854 0.3125 1.4505 0.35184 2.3848 1.8937 4.4271 1.0417 2.6786-0.60228 4.0232 2.2322 5.9896 0.78125 0.85608-0.94366 0.58406-3.0608 2.7083-2.7604-1.3767-0.57661-0.84885-1.1894 0.15625-0.26042 1.4638 1.4095 5.6519-0.67296 6.5104 1.4062 1.2786 1.6311 4.7624-0.26308 5.7292 1.5625 1.8188 0.41118 3.9102 0.64322 4.9479 1.9792 2.9035 0.6708 4.8542 2.7848 6.0938 5.2083 0.88728 1.6555 1.4018-1.1142 2.2396-1.0417 1.6564-0.45344 2.6105-0.18108 3.2292 0.88542 0.7894 0.42226 2.7721 0.72444 2.0329 2.101-0.86376 0.46834-2.5705 0.39684-2.6579 1.7011-1.2341 0.75592-1.3648 2.9544-2.8646 3.0208-1.9555-0.59503-2.8609-2.5287-4.5312-3.5417-1.1437-0.49834-1.7471-0.78075-2.5 0.26042-1.7314 0.39205-2.5537-2.5871-2.9753-0.17904-0.29421 1.8066-2.2321 3.5912-4.4206 2.4186-1.3918-1.0485-1.909 0.33512-0.9375 1.4062 0.77416 1.2405 2.6484 1.1367 2.8646 2.9688 1.4311 1.7441-1.5059 1.3791-2.7083 1.7188-2.5067 0.53032-4.9872 1.2615-6.5104 2.8646-2.222 0.59469-4.39 1.6381-5.625 3.4896-2.3902 0.54912-0.77737-2.9048-3.7525-1.7708-1.8857 0.05794-4.4181-0.53087-4.4246 1.4062-1.8269-0.31574-2.5595 1.4441-4.1667 1.8229 0.93594 1.4453 0.20291 1.3612-0.52083 2.4479-0.26904 0.95197-1.1272 3.0459 0.625 3.3854 0.45953 2.468-2.2232 1.9609-1.9271 4.3229-0.15389 2.3605-2.8636 2.0553-3.2812 4.0104-1.5093 1.9618-3.0554 3.6637-4.5312 5.4688-2.9859 0.61535-2.3658-4.0004-2.2396-6.4583-0.78789-3.0742-0.0618-6.8604 2.0833-8.3333 0.95103-2.287 3.7217-2.7255 4.7917-4.5833 1.3644-0.51906 2.4758-2.087 0.15625-2.3438 0.0759-1.9493 0.10115-5.2619-2.3438-3.9062-1.6254 1.0334-3.8042 1.7252-5.3125 2.9688-2.0602 0.31887-0.5154 5.4738-3.8021 3.8021-2.3489-0.61228-4.8481-1.3462-7.6562-1.3021-0.93014 1.9138-4.6163 1.6307-6.1458 0.52083-1.6981-0.64154-2.947 0.21794-3.6458 1.0417-2.2411 0.10679-2.5207 2.3903-4.9479 2.4479-0.70909 2.9171-3.8417 3.6759-5.2083 5.7292-0.0867 1.137-1.9052 2.9527 0.10417 3.2812 0.34252 1.1966 2.2712 1.9764 3.125 0.67708 1.1493-0.86079 2.7992-0.8588 3.125 0.72917 0.48442 1.2062 1.9707 1.9188 2.5 0.3125 0.73262-0.40009 1.3101-2.5304 2.3438-1.0938 0.34288 2.4128 0.11319 5.4063 1.3021 7.0312 0.4176 1.789 1.3578 3.6334 1.4583 5.3646-1.6954 0.1241-3.1748 1.3934-2.5 3.4896 1.6807 0.23601 0.99319 4.008-1.1458 3.0208-2.9201-0.84672-0.0199-6.9204-2.7604-8.1771-1.1066-1.3689-1.8148 1.6352-1.7708 2.5521-0.88903 2.4407-2.7811 3.6408-3.6458 5.9896-0.71562 1.9667-2.4739 3.0215-3.9062 4.3229-0.67828 2.1916-3.2283 2.3952-5.3125 3.2292-2.0021 0.6905-3.6633 1.6399-4.9479 2.6042-0.36985 2.5466-2.1471 3.957-2.6042 6.25 1.1293 2.4656 3.1969 3.7034 2.9688 6.7708-1.4395 0.73876-2.5247 1.8183-3.9062 2.6042-2.6369-0.48064-0.49877-5.8438-2.4479-6.9792-1.734-0.4998 0.65267-6.0882-2.2396-4.5833-2.0201 0.37893-2.4374 1.988-4.1667 2.4479-2.1677-0.19545 0.33506-5.061-3.125-3.8542-1.6794 0.52299-2.2063 2.6624-3.125 4.0104-0.72905 4.1342 4.969 1.8938 7.0312 3.125 0.038 2.1716-2.9445 1.2802-3.2292 3.2292-1.0966 0.93755-1.7449 3.3576-0.0521 4.0625 0.89938 1.6042 2.3729 3.1672 1.5104 5.7292-0.72811 2.5672 0.81215 6.9476-1.5625 7.8125-1.1721 2.2635-2.1047 4.326-4.0104 5.4688-0.39322 2.4558-2.8111 2.8227-4.6875 3.9062-3.725 0.37123-5.5102 2.7565-9.1146 3.2292-1.3842 0.70177 0.63347 2.63 0.76233 2.3848 2.3574 1.2427-2.6749 3.9817-2.1165 1.6777 0.50956-1.3792 0.18471-2.3773-1.7662-3.5243-3.4706-0.28417-3.6382 1.3599-2.6609 4.8264 2.1101 0.52805 2.3701 2.7011 3.0208 4.7917 0.80279 1.459 1.6146 3.4091 1.6146 3.4091 0.48094 1.764 0.77283 3.8427 0.52736 5.7804-1.2957 1.3632-3.2044 2.1356-4.4336 3.623-1.0799 0.27704-3.5634 3.2771-3.0208 0.15625-0.22658-1.5021-3.06-0.39734-1.7708-3.4152 0.0447-1.4252-1.7691-0.9598-1.5625-2.5744-1.2632-0.0912-3.8476-0.36056-4.9479 0.20834 1.0081 2.1001-1.0184 3.1706-1.4583 4.8438 2.131 1.3771 2.5131 4.262 4.5312 6.25 0.84092 3.3924 3.8903 5.1514 3.4375 9.4792-0.37236 1.8322-2.9098 1.4649-3.0208-0.20833-1.614-1.6795-2.0351-4.3641-3.125-6.5104-0.43854-1.9052-1.2392-3.4483-2.3438-4.6875-0.56368-1.1424-1.5198-2.674-0.78125-4.3229 0.98036-2.1335 1.0505-4.7292 0-6.6146 0.96846-3.1461-1.932-4.6682-0.78125-7.5521-0.58832-1.1377-1.8292 0.1966-2.0833 0.98958-1.6612-0.26214-1.397 1.4376-3.125 0.83334-0.37299-1.8635-0.52068-4.2301-1.6667-5.625 0.85418-2.5927-1.9661-2.3796-2.0833-4.6875-0.35391-1.8806-3.2728-2.7906-4.3229-1.1979-2.0614 0.59806-4.2849 0.97261-5.3125 2.6042-1.5277 0.30599-0.79093 2.9736-2.5 2.8646-0.89993 1.2382-1.5117 2.6709-3.125 3.3854-1.3358 0.52846-2.8238 1.5309-3.2932 2.8411-1.0313 0.6867-2.0123 1.6165-1.9888 3.3146 0.10343 2.1932-0.84938 3.5175-0.66292 5.9663-0.45334 1.4631-0.88981 2.7017-1.3259 4.1985-1.2433 0.44547-1.4711 2.5858-2.5634 2.7843-0.68859-0.67198 0.0549-2.8374-1.7457-2.5191-0.45922-0.063 0.22453 0.1892-0.16953-0.30976-0.39406-0.49895-1.0925-2.8318-0.84695-3.8888-0.8308-1.2506-0.96002-2.6163-1.5248-4.1101 0.0732-1.7968-1.4765-2.5011-1.3259-3.845-2.3876 0.20122-0.20059-1.8202-1.3258-3.3146-1.5482-2.3384-0.27091-7.4321-1.8993-10.165-1.013-0.32843-0.40697 1.9321-1.8562 1.7236-1.2539 0.38014-1.6909-1.617-2.1214-2.0772 2.3301 0.0982 0.88083-3.0483-1.1932-1.9888-0.92266-0.75813-2.0119-1.7988-3.3147-2.2982-0.5235-2.4498-4.7047-0.87684-6.7619-1.7678-2.5945 0.76097-3.428-0.91173-5.0824-0.92812-1.8062 1.2173-2.638-0.95056-4.2869-0.75134-0.76049-0.15407-1.7913-1.0706-3.0931-0.88348-0.76648 0.15949-1.5788 0.49455-1.6794-1.1049-1.9289-0.26185-2.2148-2.5469-3.624-3.1821-0.52876-1.66-2.5972-1.9792-2.8728-3.7566-2.1154-0.62125-2.1787 1.0885-3.5356 1.2817 1.738 1.6529 2.1151 4.2865 3.2706 6.32 1.4305 1.1121 1.4522 3.5983 2.7844 4.6405-0.20849 1.4307 1.0898 1.0176 1.8562 1.4142 1.1579-0.6364 2.7188-1.0375 3.0937-2.3866 1.4449-0.23783 2.0061-2.3242 3.0053-0.70711 0.52917 1.488 1.1123 2.6649 2.7402 3.0937 0.23472 1.4447 2.7545 0.74837 2.8727 2.2098 0.95243 1.6391-1.4991 2.8996-1.7237 4.3312-0.49734 1.4865-1.2349 2.4599-2.873 2.9608-1.3154 1.4224-1.8756 3.2424-4.1986 3.7567-2.6456 1.5728-5.4261 3.0572-7.7342 4.8616-1.6759 1.3953-4.0228 2.1192-6.7177 2.4308-0.71769 1.707-4.1802 1.2467-3.8892-0.7513-1.0771-1.7259-0.6134-4.0131-1.5469-5.7454-0.11245-2.9249-2.1007-4.6193-3.7567-5.9664-0.0333-3.1539-2.1954-4.3957-1.9888-7.5132 0.1605-1.3579-2.4435-0.35933-1.8562-2.0772-0.61205-2.0839-1.5266-4.1813-2.6518-5.6569-0.14249-1.5546-1.8656-1.66-1.9433-3.0494-1.554-0.73084-1.6439 3.0032-2.9369 1.7056 0.0376-0.98889-0.1288-3.002-0.20084-3.4933-0.072-0.49129-3.074-3.5584-0.69343-1.8819 1.5544 0.63401 1.057-2.5906 2.1517-3.2692 1.4292-1.2779 1.7245-3.7709 2.2098-5.9663 0.36576-1.6495 1.3163-3.3154-0.17681-4.4195-1.958-1.1039-3.5579 1.3526-6.1873 0.44196-2.2139-0.41182-4.5418 0.61738-6.9828 0.30937-1.3162-0.74108 1.656-2.3218-0.44195-3.1821-1.3489-1-0.7556-5.0056 0.9726-5.3029 2.3312 0.18466 1.6278-2.2798 3.8892-2.1214 1.1716-0.71737 3.1556-0.54728 3.5356-2.0772 1.9262-0.25048 3.587 0.91488 5.8337 0.61878 0.33095 2.0664 3.712 1.0092 5.0824 1.9004 2.3065 0.36302 3.631-0.81176 4.1985-2.2982 0.32013-0.37194-0.38833-1.6017-0.25827-1.5357 1.8212-0.2439 3.1334-0.18435 5.7966 1.1677z" style=""/>
  <path d="m382.84 108.72c-0.51167 0.1018-0.25789 0.70384-0.55337 1.0392-0.21208 0.1218-0.63674 0.0698-0.64312 0.39999 0.0554 0.35251 0.0162 0.71558 0.027 1.0726 0.0493 0.28762-0.19052 0.53079-0.13067 0.82131 0.67552 0.39801 0.34048 1.4572 0.69878 1.0605l0.57666 0.17656c0.79381-0.76495 1.5859-1.0655 1.4944-1.1112 0.18616-0.24335 0.16224-0.56186 0.10487-0.84397 0.0242-0.28584-0.13879-0.59927 0.0105-0.86017 0.1861-0.27121 0.74607-0.099 0.71459-0.53959-0.0491-0.41731-0.24018-0.80757-0.44523-1.1702-0.74764-0.45734-1.639-0.35502-1.8545-0.0449z" style=""/>
  <path d="m518.25 117.52c4.3377-0.0225 3.0009-1.4886 4.5666-1.8239 1.1912-0.0784 3.6922-2.1797 1.7692-2.7943-1.6984-0.27595-3.191-1.1738-4.4825-2.2384-1.9307-1.057-2.5638 1.3297-2.2578 2.7834 5.2e-4 1.5646-2.4067 2.0166-1.3596 3.7544 1.1438 1.8267-0.0624 3.7362-0.85807 5.4118-0.29638 1.8313-0.78939 3.7394-2.5301 4.7772-2.4724 1.8362-5.3243 3.0719-8.2699 3.9234-1.5694 0.26545-2.2942 1.6463-3.2995 2.6934-1.0478 1.1382-4.1822-0.20916-3.4097 2.3178 0.79747 1.1395 1.8327 2.0383 1.7962 3.6115 0.75103 1.7897 3.6021 0.77851 3.4385-1.0752-0.48689-2.09 1.7349-3.1586 3.5178-2.7822 1.2785-0.0341 2.0932-2.1941 3.7749-1.8314 1.69-0.74153 3.9156-0.46796 5.2427-1.8622 0.63986-1.6411 1.283-3.2319 2.3581-4.6202 0.0878-1.7709 0.97058-3.1282 1.8804-4.5034 0.45375-1.9936-1.7375-2.5987-2.6224-3.9296-0.98972-0.74739 0.17771-1.895 0.9993-1.823" style=""/>
  <path d="m485.15 154.98c-0.32458 0.24219-0.64673 0.49106-1.0028 0.68626-0.20389 0.42078-0.78969 0.5733-0.84758 1.0783-0.14075 0.52272 0.0657 1.0704 0.38377 1.4844 0.20826 0.43184-5e-3 0.89841-0.0394 1.3404-5e-3 0.40286 0.18909 0.85382 0.59019 0.99953 0.27257 0.24454 0.79353 0.25135 0.92289-0.14739 0.21507-0.40265 0.10597-0.88081 0.25344-1.3031 0.0991-0.42737 0.0692-0.86807 0.0324-1.2998 0.0307-0.37684 0.2992-0.67282 0.40562-1.0263 0.51225-1.2982-0.63265-4.0015-0.69857-1.8122z" style=""/>
  <path d="m482.76 172.64c-0.12854-1.1047 0.39431-2.1332 0.90714-3.0703 0.29237-0.8156-0.20129-1.7685 0.32695-2.5218 0.83794-0.64219 2.1227-0.67595 2.9764-0.0539 0.60305 0.56736 0.82635 1.4898 0.66841 2.2857-0.27492 0.87667-1.2241 1.4-1.2186 2.3901-0.17395 1.1523 0.63605 2.1201 1.3597 2.9133 0.25754 0.75753 0.75755 1.4162 1.4611 1.7587 0.45442 0.65897 1.0291 1.2124 1.6448 1.7144 0.69461 0.63436 0.2898 1.5924 0.53461 2.3902 0.10372 0.8404-0.8413 1.4975-1.6138 1.3964-0.84532-0.19761-0.67927-1.2914-1.2213-1.8095-0.55471-1.359-0.74983-2.3994-1.5855-2.7662-0.80286 0.0924-1.156 0.72735-1.4496 1.2649-0.31348 0.59743-0.99382 0.92875-1.2094 1.5881-0.31778 0.51985-0.92113 1.1455-1.5849 0.88277-0.60956-0.35147-0.80831-1.6055-0.0177-1.8245 0.79316 0.31004 1.6014-0.33008 1.7229-1.1083 0.43884-0.5434 0.80806-1.1398 1.1311-1.7463 0.1868-0.79588-0.53991-1.5743-1.337-1.5498-0.61469 0.0277-1.0793-0.17493-1.1002-0.84835-0.10132-0.42448-0.40973-0.84747-0.39524-1.2857z" style=""/>
  <path d="m488.07 185.4c0.32987 0.65359 1.034 0.75967 1.6073 0.57419 0.47537 0.0421 1.0236-0.12706 1.1292-0.6402 0.39015-0.40859 0.96-0.0676 1.3369 0.18094 0.43653 0.27547 0.85586 0.61579 1.133 1.0554 0.22275 0.40211 0.0432 0.86478 0.16565 1.2849 0.10421 0.58959 0.25138 1.1936 0.17603 1.7937-0.15761 0.55424-0.70353 0.84584-1.1543 1.1344-0.30465 0.2624-0.40691 0.80884-0.87755 0.83391-0.48348 0.0349-1.1024 0.20575-1.4559-0.24053-0.36458-0.44307-0.23146-1.089-0.55173-1.5492-0.40402-0.40488-1.0323-0.28775-1.5279-0.15615-0.45906 0.11334-1.101-0.13565-1.075-0.68144-0.0724-0.44663-0.43275-0.87605-0.27877-1.3383 0.27495-0.40939 0.93599-0.48197 1.0246-1.0301 0.1058-0.40655 0.1368-1.3685 0.34843-1.2216z" style=""/>
  <path d="m442.45 193.66c-0.0884 4e-3 0.51971 1.2408 1.0944 2.1396 0.86685 0.45115 1.0763 1.7801 1.9145 2.3823 0.23436 1.2043 0.79298 2.3788 1.7396 3.1829 0.57539 1.489 1.7594 2.6059 2.6834 3.8674 0.56554 1.0476 0.8849 2.2083 1.5182 3.2267 0.3624 0.92617 1.1117 1.5328 1.7361 2.2642 0.47713 0.606 0.87267 1.2714 1.3531 1.875 1.1691 0.20466 1.8616 2.6282 3.1622 1.4262 0.60188-0.98538 0.86743-2.1355 1.6156-3.0352 0.21409-1.0946 1.1078-2.3306 0.33671-3.3806-0.69773-0.8727-2.0098 0.26185-2.6408-0.79898-0.73744-0.96576-0.98368-2.3801-2.1982-2.9171-1.1223-0.37729-1.4368-1.5895-2.1366-2.41-0.69171-0.57677-1.3809-1.1506-1.803-1.979-0.42629-0.66261-0.92522-1.3447-1.6788-1.6544-0.60521-0.97129-1.5821-1.6471-2.1281-2.6671-0.70737-0.84141-1.4322-1.9907-2.6973-1.7874-0.62465-0.0146-0.23125 0.17608-0.85465 0.20268z" style=""/>
  <path d="m466.41 207.43c-0.5676-1.1032-0.52051-2.6571-1.7277-3.3302-1.2967-0.47412-0.062-2.0481-0.0355-2.9347 0.89389-0.80513 2.5334-0.30297 3.2008-1.4608 0.1392-0.74951-0.46466-1.7903 0.75011-1.771 1.1733-0.57631 2.4956-1.079 3.3297-2.1297 0.66975-1.0468 1.1771-2.4655 2.6574-2.4883 1.0895-0.30293 2.1495-0.99704 2.4845-2.1418 0.60113-1.3396 2.4257 0.0769 2.9968 0.89074 0.74413 1.0648 0.70732 2.3564-0.17909 3.2881-0.35624 0.98716-1.9399 2.151-0.43777 2.8443 0.8825 0.78845 1.343 2.1415 0.97217 3.2796-0.34134 1.3757-1.6063 2.0648-2.3668 3.1292-0.0177 0.7414 0.31317 1.4436-0.40758 2.0404-0.70759 0.98818-0.38921 2.2713-0.77243 3.3996-0.35815 1.1175-1.6681 1.5044-2.5859 2.0777-1.3984 0.32013-2.6275-0.59598-3.6975-1.3615-1.1831-0.37276-2.2236-1.1661-3.1468-1.9568-0.34675-0.45636-0.61209-0.97924-1.0344-1.3748z" style=""/>
  <path d="m459.11 215.76c1.4748-0.47832 3.0343-0.1761 4.5471-0.1659 0.76121-0.0901 0.95532 0.72951 1.5283 0.98951 0.53114 0.21939 1.1002-0.0117 1.6534 0.0578 0.64308-9.9e-4 1.3099 0.0802 1.9193-0.16918 0.73158-0.2006 1.7133-0.1412 2.1266 0.59278 0.54102 0.78797 1.3512 1.3847 1.7692 2.2543 0.20705 0.60238-0.3346 1.3576-0.99152 1.2249-0.77076 0.0153-1.4931-0.33919-2.0302-0.87573-0.69634-0.5818-1.6418-0.44222-2.4771-0.38856-0.50169 0.0688-1.019-0.0173-1.496 0.17968-0.59647 0.2654-0.99077-0.21-1.3063-0.57941-0.57628-0.19873-1.2048-0.12725-1.8028-0.15536-0.70241-0.0449-1.2816-0.60755-1.4403-1.2767-0.34895-0.62768-0.88876-0.0418-1.2803 0.11734-0.72666 0.0571-1.1322-0.67792-1.3961-1.2429-0.24334-0.49761-0.0846-1.1324 0.67668-0.56265z" style=""/>
  <path d="m481.35 204.56c-0.0908 0.71273 0.31407 1.4075 0.13038 2.1175 0.1174 0.64221 0.47338 1.3691 0.029 1.9675-0.25467 0.34521-1.3285 0.3547-0.77454 0.95701 0.53668 0.80503 1.0953 1.7683 0.80948 2.7707-0.1208 0.67632-0.20866 1.4168 0.0543 2.0673 0.32703 0.4823 0.95987 0.57582 1.1594 1.1711 0.50441 0.35254 0.34509-0.72851 0.39198-1.0215 0.0228-0.72499 8e-3 -1.478 0.32306-2.1492 0.1456-0.52361 0.16393-1.2779 0.92559-1.1477 0.77503 0.0312 1.1542 0.88213 1.2224 1.5539 0.0739 0.72086 0.29481 1.4283 0.56555 2.0992 0.42311 0.30187 0.45655-0.57989 0.89828-0.59768 0.51286-0.43907 0.67706-1.1675 0.68118-1.8115-0.0759-0.55338 0.94722-0.66453 0.51793-1.264-0.41487-0.54595-0.6154-1.3224-1.31-1.5829-0.59549-0.1853-0.90114-0.74033-1.1494-1.2662-0.21447-0.50316-0.38831-1.1236-0.14418-1.6417 0.42177-0.51472 1.2272 0.29251 1.5941-0.2946-0.38572-0.44952-0.66718-1.0563-1.2021-1.3358-0.8295-0.28291-1.7051 0.27828-2.5309-0.0683-0.70381-0.14349-0.9104-1.0979-1.5874-1.1743-0.29988 0.0835-0.48314 0.38527-0.60413 0.65119z" style=""/>
  <path d="m492.86 219.15c-1.0528 0.65808-1.9698 1.779-2.7593 2.6249-0.93895 0.5532-0.46337 0.89531-0.23321 1.6872 0.49217 0.81188 1.4819 0.5081 2.2259 0.538 0.92011-0.37529 1.1842-1.2146 1.3193-1.8776 0.43438-0.48537 0.86814-0.90033 1.3144-1.2705 0.58918-0.77505 0.0828-1.5273-0.16455-2.0837-0.8681-0.27464-1.158 0.11143-1.7026 0.38171z" style=""/>
  <path d="m485.11 202.74s0.44709 1.1383 1.6662 1.2582c1.0707-0.0625 1.261-0.69885 1.7339-1.2545 0.60986-0.11578 1.1828 0.22775 1.7888 0.22191 0.41765 0.12207 1.059-0.11335 0.84786-0.64455 0.15014-2.1265-2.5286-1.4165-4.1678-1.3619-1.6447 0.23582-3.1443 0.27122-4.2917 1.1744-0.99071 0.87923 2.8969 0.27308 2.4227 0.60653z" style=""/>
  <path d="m519.09 210.11c-0.61953-0.71775-0.15707-0.85699-1.0919-1.0632-0.94321-0.15795-1.8442-0.45071-2.6414-0.99257-0.7492-0.52718-1.669-0.34766-2.5218-0.37114-0.9253-0.14216-1.8806 0.26406-2.3514 1.0933-0.23672 1.0857-1.4822 0.75768-2.2572 1.1142-0.85182 0.0702-1.6636 1.3303-0.65104 1.802 1.2325 0.56832 2.7954 0.64924 3.6629 1.82 0.34711 0.89842 1.3271 1.1309 1.8628 1.8334 0.2417 1.0468-0.43026 1.9888-0.93672 2.8423-0.44987 0.91971 0.55012 1.8754 1.4764 1.6716 0.92336 0.17317 1.9067-0.22971 2.7758 0.0342 0.61017 0.80108 1.3884 1.3986 2.4127 1.5675 0.62681 0.14721 2.4845 0.48989 1.8126-0.38782 0.27456-1.2215-0.27389-1.0881-0.29178-1.944-0.17704-1.5682-0.5099-2.1095-0.39772-3.1988-0.16535-0.877-0.2008-1.3955 0.14478-2.2333 0.44623-1.507 0.73242-3.3978-0.0851-3.2285z" style=""/>
  <path d="m495.85 201.62c0.22544 0.50932-2e-3 1.0703 0.0961 1.6003 0.0315 0.51708-0.0609 1.0592-0.37231 1.4846-0.19616 0.33869-0.16644 0.73393-0.1619 1.107-8e-3 0.35484 0.0857 0.73779-0.0909 1.0671 0.0251 0.47269 0.69265 0.53503 0.9573 0.21877 0.21881-0.3485 0.35836-0.77517 0.4332-1.1752-0.0601-0.40795-0.18798-0.82797-0.0604-1.2382 0.098-0.4011 0.34049-0.74491 0.63852-1.0235 0.18814-0.33213 0.71235-0.34234 0.74931-0.7624 0.0237-0.3451-0.0693-0.68839-0.0173-1.0341 0.0378-0.47081 0.21586-0.954 0.0587-1.4212-0.22587-0.35397-0.70832-0.29641-1.0722-0.30484-0.39938 0.0595-0.82782-0.10857-1.2048 0.0451-0.87054 0.48091-0.30458 0.75745 0.0467 1.4365z" style=""/>
  <path d="m500.1 207.73c0.564 0.26557 1.1967-0.0721 1.3409-0.66511 0.16798-0.53791 0.68889-0.79432 0.98315-1.2445 0.5135-0.55603 0.74241 0.41672 1.0301 0.72146 0.15564 0.54124 0.54925 1.145 0.26817 1.7142-0.47928 0.37261-0.36055 1.0097-0.31882 1.5391 0.0978 0.48898 0.01 1.2494 0.62935 1.4077 0.51687 0.0689 0.90103-0.37876 1.3691-0.50012 0.36609-0.36821 0.54011-0.83823 1.048-1.0544 0.28208-0.3898 1.0958-0.28609 0.99026-0.91376 0.0189-0.53491 0.0565-1.1287-0.32257-1.5644-0.44048-0.40839-0.9096-0.88046-0.95845-1.5159-0.1832-0.54961-0.79344-0.74822-1.164-1.1456-0.49287-0.38169-1.1295-0.54808-1.7469-0.47154-0.5068 0.11026-1.1437-0.23652-1.539 0.19576-0.31855 0.44257-0.12062 1.1714-0.73319 1.411-0.45644 0.11376-0.85434 0.26138-1.1488 0.64937-0.58309 0.49826 0.17405 1.2531 0.27258 1.4369z" style=""/>
  <path d="m478.64 221.64s1.0013 0.59021 1.2724-0.0147c0.31395-1.5188-0.54676-1.612-1.7503-1.6937-1.1897 0.59681-0.41223 0.79201 0.16846 1.2664z" style=""/>
  <path d="m483.26 220.06c-0.15715 0.27342-0.10959 0.60152-0.21134 0.89146-0.13332 0.46148 0.0984 0.7229 0.19786 1.0383 0.24297 0.27988 0.60912 0.32856 0.88201 0.44306 0.28011-0.0475 0.47006-0.27906 0.68974-0.44576 0.35695-0.26073 0.52087-0.81668 0.66036-1.1201 0.44873-1.1773-5e-3 -0.65717-5e-3 -0.88291-0.3902-0.20193-0.86747-0.0611-1.2134-0.0248-0.36497 3e-3 -0.41109-0.1204-0.74266-0.0868z" style=""/>
  <path d="m416.93 185.16c-0.36602 0.33803-0.55158 0.93187-1.0965 1.0301-0.40886 0.0657-0.60738 0.52451-0.5681 0.90184-0.1179 0.46703-0.1503 0.95172-0.0893 1.4295 0.0343 0.39408-4.7e-4 0.78859-0.0247 1.1811 0.0499 0.34571-0.0393 0.93539 0.37034 1.0591 0.3344 0.0959 0.7801 0.12502 0.92734 0.50076 0.35661 0.40536 1.0363 0.53618 1.461 0.15832 0.3799-0.19229 0.39397-0.70184 0.71584-0.91079 0.32253-0.13128 0.76191 0.0469 1.0025-0.27139 0.38449-0.34624 0.3054-0.92313 0.17938-1.3697-0.0651-0.40977-0.49912-0.54987-0.74867-0.81219-0.25001-0.35896-0.12634-0.812-0.0339-1.2004 0.0482-0.38008-0.14468-0.80409-0.52086-0.93665-0.35637-0.20631-0.72354-0.40985-1.1288-0.50098-0.1601-0.0662-0.26461-0.23816-0.44554-0.25859z" style=""/>
 </g>
 <g id="South_America" style="">
  <path d="m216.5 209.38c-5.8208 1.8827-10.008-8.6694-14.594-2.8775-5.3207 1.929 3.5526-4.224-1.9217-2.9033-1.2756 1.7785-5.2958 4.606-2.8496 0.55953 5.6849-3.2938 0.24321-8.9894-3.5719-11.466-4.8875-0.92642-9.8106-3.6179-11.927-8.2211-1.871-1.642-6.2261-4.4677-6.6079-2.4324-3.4508 1.0043-5.189-4.0293-5.4276-2.5171-2.4228-0.32324-2.9941-1.0623-3.9941 2.0392-2.2817 3.1948-1.2163-0.81882-2.7913-2.2344-2.0216 2.1032-5.6475 3.2211-6.4725 6.3228-1.2796-0.97833-7.401-2.7392-3.831 0.77014 1.8418 1.3277 2.4154 9.0216 0.35068 12.392-4.534 4.741-3.426 10.155-4.0035 15.65 2.6693 5.2784 4.1477 10.874 6.7177 16.12 2.5754 4.0302 6.7151 6.8213 10.086 9.9992 0.13653 5.0276-0.82406 9.7721-1.2744 14.704-0.18399 6.3798-0.16689 13.021-2.5246 18.939-2.3477 5.3593-3.0349 11.689-3.2806 17.087 3.0088-0.19127 1.9113 5.9226 0.59054 6.1546-3.6634 0.22497-1.6052 4.196 0.78095 4.6339 1.3729 3.964-5.8293 8.8922 0.24054 11.669-0.34926 2.5025 2.7413 3.4306 0.61511 0.42233 2.3938-2.6561 2.4352 5.628 4.6659 1.1366 1.518-4.8718 4.8782-8.8646 7.4854-13.214-0.5524-2.5735-5.4233-4.3717-0.83496-6.6207 2.3393-1.0309 1.4342-4.8995 4.6871-5.9263-3.7242-2.0572-1.7068-3.3442 1.3607-3.8041 1.2004-6.069 12.622-2.8817 10.014-10.071-2.6206-1.2907-3.3802-5.4879 0.125-2.5625 6.8293 0.73228 9.2812-7.3672 12.019-12.319 2.3667-3.1649-1.7475-6.9031 3.5694-8.715 3.0364-4.0386 9.3298-2.1154 10.96-6.5261 1.992-3.8955 2.8845-8.5603 2.7503-12.968-0.64572-5.726 5.0338-9.0038 7.1387-13.784 1.2292-4.904-6.352-9.9582-8.3385-9.4697z" style=""/>
  <path d="m166.92 316.67c0.32962 1.0434-0.70742 1.7546-1.4992 2.151-0.74083 0.49434 2.2131 0.15171 1.929 1.2131-0.33362 0.73367 1.5676 1.1377 2.4909 1.3665 0.85958 0.43508 1.6312-0.0975 1.4139-1.0404 0.56973-0.78673 1.7076-1.7685 1.0194-2.5479-0.56648-0.89499-1.7312-1.0366-2.4754-1.6236-0.52043-1.1132-1.3063-0.88371-2.3379-0.64464-0.34064 0.20263-0.51839 0.78609-0.5406 1.126z" style=""/>
 </g>
 <g id="Europe" style="">
  <path d="m267.77 115.95c3.1659 3.7814-3.551 10.73 3.8378 12.057 3.7916 3.4035 10.254-0.0275 12.124-4.2841 1.3139-3.5878 6.218-5.3018 7.5323-9.089 4.6461-0.90646 9.8232-3.7385 11.912 2.2673 1.7262 2.6728 10.893 6.7471 4.543 8.7529-5.9126 0.6133 2.9004 6.3254 2.2131 1.0352 3.9172-1.7097 6.0463-7.2835 0.60498-8.362-2.782-1.4218-9.4706-9.1624-3.4181-8.9817 2.4248 3.8126 7.107 6.6099 8.8519 10.774 0.90704 2.179 6.3143 6.1123 1.2081 6.8798 3.4545 3.3742 11.897-0.0923 5.5683-3.943-0.63467-4.8582 9.9436 1.116 8.078-5.4294-0.0891-4.06 3.2724-11.134 7.7612-10.057 0.1593 4.8492 5.8725 4.4524 3.5346-0.0679 2.5882-1.2415 5.9547-1.8402 4.5941 2.5319 0.84864 3.7781 6.1353 4.86 9.4882 5.8092 2.7571 1.6458 10.876 6.8352 10.291 5.1136-0.64353-3.9213-5.5611-7.8792-2.3472-11.756 3.1648-4.12 9.7141-1.5637 11.21-7.6678 4.204-4.3757-1.5135-11.433 4.6969-14.101 5.6214-2.9509 4.804-10.909 5.3733-15.134 3.0082-6.2293 1.8588-10.089 2.1947-15.173-0.76074-4.156-3.9816-9.4736-8.5337-6.8857-2.9796 4.5787-7.4416-2.9985-11.114 1.3257-2.0173 1.3605-8.0704 6.8702-8.6344 2.682 3.6031-3.2937-2.9701-4.2536-2.0338-0.06972 0.82868 5.3708-5.0067 0.88607-6.2776 5.3802-0.96906 4.2802-8.5831-2.1563-4.9449 3.0077-0.97509 3.742-5.8276-3.5618-6.8067-4.5071 2.1725-4.2522 9.189 2.4898 12.367-2.5069 0.5564-5.2893-8.365-5.85-11.966-8.5873-2.9392-0.28378-6.4995-0.23367-5.4961-2.6021-4.6112-2.0018-10.114-1.9975-13.584 0.94568-4.1417 1.6996-8.3917 3.4138-9.8826 7.2081-3.1548 2.0857-8.4998 5.5042-8.3095 8.9108 0.96457 3.0619-3.5719 5.5958-2.6588 1.3691-3.1222 3.6787-9.1659 6.5099-6.848 12.351 0.94319 5.7039 6.2334 3.1988 9.1036 0.90064 1.1044 3.0954 2.1145 11.391 7.4414 8.3628 2.143-0.26698 6.4689-2.2091 5.377-2.9125-4.8353-2.3309 3.8751-5.4845-0.71496-9.2309-3.0316-5.1187 5.4866-6.9232 6.7714-11.426 1.8725-5.1826 6.0602 0.81072 1.8852 2.8553-5.5897 2.8412-3.2954 12.299 3.3752 10.127 3.1618-2.4053 7.1683 1.3137 9.1842-2.8437 4.1211-0.45602 2.7542 5.52-0.77773 2.7919-3.679 0.97388-14.568 0.86555-10.545 6.5792 1.0077 2.3762-5.0682-0.94809-4.6061 3.3361-0.30954 4.639-4.1029 4.7909-7.5229 4.4983-3.6044 2.5905-4.5832 2.1155-4.7216-0.97703 0.03-0.64535-4.6754 2.3985-4.6173-0.68193-3.1378 1.3708-1.9252-2.1958-1.6827-3.9815-7.5277-3.022 1.1313 10.234-5.3513 8.0812-5.8595 1.9541-8.5708 8.7551-14.798 10.133-3.303 0.50737-5.7168 3.497-1.6069 5.0573 4.9257 3.8804 1.1554 11.528-4.8244 7.8036-2.7434-1.5126-8.5228 0.40044-6.4983 2.3318z" style=""/>
  <path d="m290.04 121.22c-0.82826 0.52211-1.85 1.9655 0.0826 1.6442 0.78042 0.0161 0.80758-0.21435 1.139-0.66943 0.12368-0.18173 0.28921-0.35437 0.32192-0.58004 4e-3 -0.15971-0.22267-0.65145-0.46655-0.29665-0.32303-0.048-0.69282-0.26812-1.0769-0.0981z" style=""/>
  <path d="m297.22 121.34c-0.14095 0.48064-0.50489 0.95157-0.35015 1.4746 0.23197 0.65498 0.77538 1.0952 1.1853 1.4304 0.59602 0.33551 0.88967-1.3852 1.1739-1.8616 0.28337-0.14628 0.66203-0.0548 0.88596-0.32411 0.3753-0.39456 0.37419-1.113-0.036-1.4812-0.66324-0.37737-1.2105-1.1197-1.6152-1.5418-0.30031-0.14453-0.70378-0.1389-0.92762 0.13726-0.32797 0.64557-0.27617 1.5064-0.31623 2.1664z" style=""/>
  <path d="m376.81 44.125c1.2803 0.51008 4.1272-0.49415 1.4968-1.3131-2.4711-1.0584-2.005-4.2945 0.15059-5.4009 1.2547-1.4477 2.3858-2.9688 3.9876-4.0564 1.4919-1.6523 3.7685-1.7586 5.6893-2.6184 2.1022-0.48374 4.1506-1.1562 6.2337-1.7159 1.745 0.37267 5.282-2.1116 2.3032-3.1581-2.1929-0.07671-3.9824 1.671-6.1707 1.9101-2.3247 1.6062-5.1731-0.27772-7.4692 0.94062-0.96826 0.63383-2.8931 0.21746-3.2917 1.7462-1.7186-0.11895-4.023-0.46012-3.849 1.8931-1.1663 1.5507-1.1837 3.7861-2.9266 4.8675-1.704 1.0927-3.169 3.996-0.8322 5.2368 1.5044 0.91376-1.0369 2.5605 1.245 2.785 1.8533 1.3098 2.0716-1.1189 3.4331-1.1165z" style=""/>
  <path d="m279.19 75.375c-2.012 0.45333-3.1852 2.5578-4.6239 3.9328-0.4794 1.092-1.0365 2.0515-2.3151 2.1071 1.6239 1.4233 2.4385 3.1322 2.3226 5.296 1.1067 0.7276 0.60374 2.0755 1.0268 3.1052 0.65954-1.9096 3.1353-1.1584 2.2732 0.77222-0.54176 1.5992-3.4041 0.92286-2.2923 3.1611-0.71131 1.5375 4.0844 0.32722 1.811 1.7883-1.7834 0.13266-3.9647 2.9032-3.4 3.5103 1.672-1.5163 3.8296-1.3573 5.8844-1.8391 1.617-1.0909 3.9384-0.35244 5.3112-1.3458 0.6765-1.4475 1.6078-3.0627-0.37486-3.9244-1.9594-1.3358-1.7168-4.5894-3.9702-5.4954-1.6901-0.7128-2.8841-3.1241-1.7094-4.7859 1.6546-0.2159 1.3259-2.067-0.29382-1.6051-1.6802 0.52275-2.0744-1.4227-0.34464-1.7151 0.70871-0.95339 0.43834-2.1368 1.0436-3.1695-0.27576-0.21274-0.633-0.15625-0.34856 0.20733z" style=""/>
  <path d="m272.31 86.312c-1.2752-0.20956-3.2868-0.79648-2.9691 1.2871-0.37227 1.2547-1.9202 1.7926-2.1403 3.0763 0.41117 1.3853-0.0885 2.5423-0.5903 3.7739 1.2736 1.1778 2.9392-0.66561 4.0965-1.3062 1.0695-0.59885 2.6612-1.2839 2.8741-2.6652-0.0908-1.2853 0.43502-3.1355-0.79555-3.972l-0.25805-0.07567z" style=""/>
  <path d="m244.5 57.25c-0.23419 0.57736-1.3838 1.2621-0.5317 1.8079 0.69781 0.33782 0.38314 1.235 0.32867 1.8352-0.029 1.1672 1.265 0.26678 1.8569 0.4388 0.66254 0.49081 0.48144 1.6486 1.3379 1.9704 0.67806 0.0321 1.0881 0.64273 1.6135 0.9976 0.55325 0.48665 1.2978 0.29142 1.9533 0.33818 1.5031-0.04948 2.5906-1.4457 4.1218-1.3935 1.5424-0.1368 3.6634 0.39343 4.4427-0.93432 0.45747-0.84395 1.6621-0.92789 2.0452-1.8164 0.28092-1.094-1.0476-1.2108-1.5521-1.8979-0.82158-0.83524-1.3698-1.9207-2.3092-2.6424-1.6577 0.33932-3.2912-0.42665-4.9522-0.24236-0.91735 0.87197-0.49853 1.9316-1.3938 2.8262 0 0-1.9746 1.2807-2.6016 0.94278-0.22533-0.69606 0.24705-1.7236-0.62392-2.1825-1.0959-0.58133-2.378-0.24647-3.5488-0.17029-0.0622 0.0409-0.12446 0.0819-0.18663 0.12274z" style=""/>
 </g>
 <g id="North_America" stroke="#000" stroke-width="1px">
  <path d="m145.71 179.59c0.86418-6.0136-2.766-8.664-8.1983-8.7182-0.0628-3.1418 3.7869-14.89-4.045-8.9608-1.1031 8.898-14.527 3.9093-11.737-4.254-4.2761-6.9324 3.9315-15.529 10.907-12.089 5.4843 3.1332 1.1649-4.9331 7.4298-2.4968 6.9512-2.3486 5.6752 14.054 10.6 8.7903-1.0221-7.5604-5.2845-11.699 2.2587-16.585 4.6045-2.608 3.3539-8.2053 4.6553-11.535 3.1686 2.6392 3.5594-7.0083 8.7387-5.6022-3.1427-4.8511 7.8127-10.007 7.5862-5.9469-0.27909 4.583 11.351-4.3833 2.9625-5.6591-6.1068-0.70903 3.5356-6.776-4.6174-5.4713-2.7374 5.8231-6.0266-1.2042-0.27473-1.7373 4.0883-0.43466 6.0074-1.0553 7.1497 2.3623 6.2966 1.1503-4.6976-4.5042 2.868-3.4502 5.2393 0.33177 13.82-5.5875 5.5382-8.2556-3.9535 2.3197-3.5815 0.72909-0.54864-1.9556-6.5206-2.2097-7.2819-9.2628-11.252-13.704-3.5207 5.3462-11.216 3.3841-8.5561-2.4172-4.1334-6.0362-17.02-6.6466-13.77 3.4432-1.8612 4.6704 3.2064 9.2225-0.94668 14.133 2.2371 7.8831-5.7991 8.752-5.5292 2.2843-1.6457-7.0671-11.606-4.8028-15.729-10.801-1.2061-3.8488-8.0616-4.0893-3.4104-9.3282 2.2127-5.4532 7.7127-6.391 10.163-10.763-3.6147-2.524 13.142-1.96 10.3-8.9377-0.9296-7.1029-8.5391-4.0443-8.6028 1.367-1.6298-2.1199-4.0625-8.7805-6.8012-3.2449-1.0839-3.6853-6.853-8.8675-9.0706-4.3805 3.2943 3.1008 1.5353 7.7816-2.222 6.527-6.0349 3.328-11.789-1.3396-16.948-2.9421-1.895 2.2152-1.1216 10.89-3.8643 3.7527-4.2454-1.1349-9.3047 0.56077-10.715-4.5837-7.131 0.68116-13.718-4.6957-20.274-1.7938-3.4528 2.1735-6.6488 3.4801-9.9414 1.7385 1.5339 4.8887-0.86686 6.1288-2.1875 1-7.911-2.0516-15.968-4.7743-24.273-4.4546-7.4768-4.6431-15.802-1.1876-22.167 3.7558-12.322 0.89729 12.021 10.15 1.1805 8.3396-6.0849-2.2775-9.4932 5.1943-1.5834 5.8822 5.3043-3.8446 7.9026 2.2044 1.5304 3.477-6.4578 3.1227-0.1703 9.1247 3.1646 9.9484-2.0118 4.3525 2.3191-2.8116 4.3588 1.3791 8.0733-1.1079-4.8359 7.2841-5.9502 9.03 6.6494-1.6941 13.213-6.34 17.001-12.329 0.48755-7.5811 5.8923 2.3637 7.624-3.465 6.1904 3.4575 13.96 4.9484 20.788 7.2653 3.1023 1.3604-0.11732 5.6089 5.5131 4.1087 3.2506 1.8124 2.0948 8.7929 1.2541 9.3657 1.5101-4.0773 3.6096 1.2907 3.2459 1.4468 4.3316-1.5457-1.1547 4.9607 4.0377 3.9411 3.9984 2.5534 2.9588 6.0323 5.9835 5.335 1.2543 3.3258-3.0411 1.8704-2.0822 5.1967-0.57588 6.2707-2.7941 14.752 2.7319 19.25 0.87268 6.8787 9.8121 9.1756 10.698 16.24 2.8714 4.5486 4.5882 13.209 10.569 14.224-1.6202-5.3594-9.5792-11.592-6.7615-16.571 4.5581 4.5904 6.0516 12.214 11.597 16.876-0.3102 8.8725 7.9135 9.2373 13.102 13.882 7.783 0.34363 13.755 4.6434 20.293 8.3409 0.76679 3.7955 2.3012 4.7156 4.5244 6.1804 1.6357 3.0378 14.687 6.7262 7.4405-1.0071-0.45093-0.63216-8.1619 1.3512-5.7362-5.423z"/>
  <path d="m145.62 157.32c-0.69561 0.35908-1.4435 0.94443-1.4771 1.7942 0.16274 0.7694 1.1408 0.94765 1.5015 1.5734 0.73729 0.21101 1.3523-0.45801 1.7284-1.0082 0.52621-0.75707 1.5525 1.9286 1.5581 1.1461 1.8433-0.72802 1.6192 1.2199 2.9656 1.7932 0.89222-0.0355 0.87526 1.1878 1.7264 1.4369 0.70896 0.12532 1.0366 0.91196 1.613 1.1591 1.1218-0.089 2.2022-0.63164 2.9356-1.4864 0.76192 0.25261 1.5395-0.61819 0.75955-1.1927-0.50257-0.48216-1.2779-0.54993-1.7165-1.1166-0.57905-0.49729-1.3705-0.81755-2.1354-0.66601-0.67965-0.31606-0.90588-1.2788-1.8007-1.3095-0.88499-0.27268-1.8243-0.30104-2.7086-0.57675-0.51165-1.6088-2.6462-2.2833-4.066-1.4584-0.29023-0.0756-0.61979 0.10326-0.88399-0.0883z"/>
  <path d="m160.51 166.6c-0.78552 1.7414 0.85209 1.484 1.8562 0.88387 1.0222 0.52795-0.46036 2.1567 1.0165 1.1049 1.2993-1.1879 4.2247-1.475 6.4082-0.79554 0.22538-1.9026-1.5186-2.7612-3.3147-2.9611-0.46286-1.5368-3.3867-0.52819-4.4195-0.0442-0.29007 0.84827-1.6016 0.62468-1.5468 1.8121z"/>
  <path d="m171.92 167.79s2.4109 0.8563 1.6258-0.97228c-5.612-1.3506-1.6258 0.97228-1.6258 0.97228z"/>
  <path d="m189.12 98.125c-0.93225 0.42438-1.1982 1.9033-2.625 1.875-1.3546 0.31789-0.76489 2.7875-1.875 3.4375 0.24285 2.0574 4.0029 1.503 4.8125 0.3125 2.0591-0.18108 2.4921 1.4478 4.6875 0.75-0.78371-1.8455-0.8854-3.7057-2.625-4.3125-0.80821-0.7153-1.299-1.4023-2.375-2.0625z"/>
  <path d="m141.67 109.51c2.9412 0.87707 2.9619-4.4127 0.17678-3.2165-1.0526 0.45209-0.91793 2.0124-0.17678 3.2165z"/>
  <path d="m138.06 102.81c-1.2817-1.2109-3.0034 0.54281-4.0625 1.0625-0.98856 0.73555-2.3678 1.138-3.125 2.1875 1.603 1.3342 5.5314 0.0108 7.9375 0.5 0.79728 0.99518 1.4478 1.8658-0.3125 2.5-1.2314 0.73022-1.8753 2.9004-1.125 4.8125 0.73593 0.77762 0.21524 4.8953 1.875 2.875 0.32471-1.6857 1.6582-2.5347 1.7156-6.9123s-1.7866-6.9963-2.9031-7.0252z"/>
  <path d="m145.5 114.06c1.3408 1.0825 2.6467-0.0498 2.5-1.6875 0.56742-0.55144 2.2568-1.7492 0.8125-2.5-0.15515-1.9461-4.1899-1.1201-4.6144 0.37953-0.42447 1.4996 1.018 2.0684 1.3019 3.808z"/>
  <path d="m146.31 118.44c3.3604 0.87539 2.9958-2.2484 5.4375-2.3125 0.93441-0.96637 2.3077-1.7344 3.3125-2.5 3.1955 0.44189 0.33434-3.1819-0.625-1.125-1.7681 1.127-4.2335 1.3129-5.4375 3.125-0.95781 1.1891-2.6859 1.0585-2.6875 2.8125z"/>
  <path d="m192.77 39.76c-0.93613 2.9225 1.943 2.5993 3.1795 0.78929 2.299 2.5979-3.9772 5.1023-1.3618 5.9539-2.6694 2.8088 2.4073 2.6221 2.8019 2.5274-0.89111 2.477 0.8959 3.9283-1.9216 5.0818 0.3264 1.7366 1.4113 2.9621 0.24507 5.2217 0.66847 2.2559 2.6445 2.7292 2.6515 5.5464 2.0751 4.2786 6.1964 7.0331 10.621 8.3198 4.8233-0.35464 3.4856-5.8968 5.3831-8.7065 1.4214-5.8837 7.9413-5.1772 11.229-8.7075 1.754-4.8631 7.2842-5.8679 11.855-5.359 3.046 0.90687 10.721-2.8351 4.7271-4.8263-3.6002-1.2577 3.2393-5.089 4.1101-1.0682 4.3619-2.4869-2.3556-4.8436-3.3766-6.3608-3.9049-3.9632 2.2837-5.752 4.6956-2.6348 2.2145 2.2332 4.548 0.35086 2.0339-1.5625 1.1142-1.846 5.03-0.4704 2.143-3.0859-3.2747-0.90216-4.9986-5.8439-0.14733-5.4551 5.1392-0.95434-4.7343-3.9354-0.32661-5.5286 0.041-2.8046 3.6916-3.2908 4.6274-3.3302-0.69395-2.1849-8.2181-1.3199-2.7699-2.7005 3.3337-1.1513 8.5104-2.5989 9.9901-5.283-2.3549-0.79929-7.4231 0.27293-8.116-0.94314-1.579 3.2075-3.8857-0.026033-6.1071 1.6383-4.5339-1.4235-9.4881-2.5163-13.922 0.028918-2.111 0.71923-6.5638 4.0017-7.8372 1.3708 4.412-2.1378 9.2715-3.6867 14.183-4.4981 1.891-0.04287 5.676-1.0191 6.4923-0.89551-4.5611-0.00981-8.062-5.2925-12.419-2.9514-3.2672-0.1285-8.7537 2.8145-8.978-2.0818-4.8722-1.3872-9.4191 2.584-13.843 1.4818-2.2872-2.1552-5.03 0.30983-7.1511-1.4777-4.4075 1.7865 5.6481 4.7412 0.53597 5.5669-4.4351-1.7666-8.5648 1.362-12.626 1.0952-3.6333 1.0267-10.127-0.50249-12.061 4.2102-2.182 2.8038-10.441-0.15766-9.1156 4.7865 1.8339-0.31462 6.1878-0.53951 3.2677 2.2597-3.0947 2.5481-10.254 0.61247-11.148 4.9194 1.6304 1.0714 8.886 1.0706 3.6393 2.8945-5.9384 0.16796 1.4333 3.4899 3.5083 4.1797 4.8643-0.47625 10.684-2.3187 15.4 0.12951 2.4975 2.7447 4.3872 6.0764 5.9086 9.4547z"/>
  <path d="m131.44 8c2.3852 1.0441 4.0917 3.9177 6.9967 3.4874 3.0112-0.01176 5.9906 1.3474 9.0166 0.96446 1.5114-0.79976 4.8793-4.4105 5.6934-1.3463-1.5743 1.0546-3.1352 2.6176-5.1842 2.5376-2.1876-0.12618-4.7252-0.74252-6.5058 0.94664-1.9772 1.8368 0.21986 3.6463 2.2461 3.1962 1.436 2.1745-3.4715 2.1382-4.4433 0.71565-1.8574-1.5966-1.5697-4.9028-4.5553-5.273-1.7874-0.69172-2.9106-4.4334-5.382-2.3963-0.38174 2.0902-2.2651 2.6967-4.1389 3.2552-1.9924 2.3688 1.8431 3.7179 3.8034 3.5091 2.6877 1.2514-2.9325 1.8727-0.60173 3.0459 1.2514 0.69294 1.3409 3.0358 3.3172 2.2514 2.5109 0.61769 5.4098-3.9159 7.2034-1.1905 0.73322 0.34888 2.5902-0.81174 2.591 1.0856-0.29871 2.0668-2.169-1.8015-3.5309-0.22246-3.0985 0.94373-2.8487 6.1881 0.90715 5.0315 3.0299-0.58152 6.0332 0.5235 9.0394 0.83699 1.909 0.83836 4.7765-0.48584 5.4498-2.3847-0.0904-2.0883-5.2114-0.44726-3.4694-2.7226 2.6916-0.06355 5.652-0.24998 8.0395-1.503 1.8541-2.1701-3.0843-2.3292-1.3994-4.1417 1.8933-0.32646 3.3636-2.6351 5.3292-1.2502 1.1381 0.23084 2.643 0.06357 3.1652-0.16265 0.60032-0.49885 5.7818-4.0424 9.7484-4.892 1.3376-1.5749 0.65488-5.1055 3.6508-4.7265 2.3629-1.1244 1.2889-4.5468-1.1617-3.9197-1.8501-1.7855-3.3572 2.2244-4.8525 0.3749-1.1412-2.1819-3.296-1.9814-5.3557-2.1541-3.8123-0.73861-7.6932-0.38118-11.545-0.58117-2.0488 0.14007-4.3707-0.49125-6.1637 0.70397-2.592 0.56438-3.8512 3.1013-6.2912 3.8315-2.9093 0.27079-5.3428 2.2713-8.304 1.9965-0.93791-0.46739-4.3579 1.0362-3.3479 1.3036l0.0484-0.098399z"/>
  <path d="m149.12 35.875c-0.50994 2.4488 1.5146 4.3847 3.6875 3.125 0.18052-1.5426 2.6425-1.1847 2.5625-2.8125-1.8164-0.74002-4.1755-2.5393-5.8125-1.125 0.14364 0.59155-1.4424 0.34536-0.4375 0.8125z"/>
  <path d="m156.31 39.188c1.9934-0.53149 3.0993 1.6568 4.0171 2.4016 1.5863 0.0022 4.7592 0.76589 5.204 1.4246-0.5371 1.5503 2.5762 1.2424 3.3231 2.3901 2.1578 0.21278 3.7466 2.1242 2.1151 3.9513-0.63202 2.597 2.5643 2.003 4.1093 2.6867 2.2117 0.25714 3.2342 3.008 5.5439 2.8957 0.55779 1.9726-0.95017 4.5711-2.7586 5.1279-2.1584-0.09767-2.8383-3.1473-5.1173-2.9824-2.7566 0.2551-1.3676 3.0128 0.46953 3.57 1.3587 1.6143 2.8808 3.7877 2.5169 5.9944-2.0493 2.6489-3.6574-1.55-5.1968-2.5567-2.4512-1.1337-0.74037 2.2489 0.63246 2.3653 1.7757 0.48548 2.0777 3.6888-0.20043 2.0567-2.1142-1.4295-4.7753-1.0869-6.5519-3.1456-1.8979-0.93059-3.4993-1.8006-5.3162-2.6254-1.7408-0.29297-3.5423 0.40707-5.2009 0.3178-1.5058-1.1992-0.28018-3.3267 1.3054-3.1977 1.6911-1.0957 4.5322-0.1295 5.4534-2.2472 2.3416-1.1 3.0344-4.7408 0.6895-6.0088-0.92374-1.844-2.4005-3.4459-4.7363-3.2287-2.2196 0.07368-3.5539-2.0405-5.7643-2.139-1.9548-0.30626-4.0324-0.68581-5.9271 0.05598-2.5392 0.55182-5.3071 0.91484-7.8074 0.0284-1.0692-1.3058-2.8372-1.4829-2.7067-3.2887-2.214-1.6822-1.1966-5.0981 1.2467-5.9743 1.7372-1.2232 5.0372-2.7938 6.2077 0.02913 1.0352 0.82224 0.98101 4.5046 0.80839 1.6034-0.0626-2.3578 2.7111-3.3764 4.6463-3.1862 2.527 0.74421-0.66315 4.0128 1.7063 4.8142 2.0069 0.78366 3.827-0.05346 5.6786-0.76518 0.3089-0.32589 2.1548 0.30575 1.6103-0.36738z"/>
  <path d="m139.12 61.594c2.0978-0.60693 1.0263 1.2908 0.56265 2.1562-6e-3 0.6207-0.87801 1.883-0.40605 1.8125 1.3578 0.01495 1.3582 0.96742 2.1247 1.4062 1.5674-0.43855 0.44568 0.52741 1.5624-0.0625 0.43453-1.3801 1.6669-2.5829 3.4992-1.9062 0.46302 1.0354 4.2311 1.0612 3.1559-1-0.37373-1.1817-1.6704-1.95-3.1245-2.0938 0.0995-1.2574-1.8258-0.95796-2.3433-1.6562-1.6123 0.13028-2.3406-1.9466-3.5934-0.25 0.0461 1.0177-0.35607 1.7791-1.4376 1.5938z"/>
  <path d="m144.62 67.219c-0.59391 1.0768 0.43758 2.3523 1.1562 1.1562-0.67631-1.1714 2.0883-1.3777 0.2499-1.7812-0.48072 0.38056-2.0355-0.18556-1.406 0.625z"/>
  <path d="m121.8 20.8c-0.0319 1.1449-0.64163 3.0217 0.8839 1.9887 0.7588 0.46873 2.0667-0.50777 1.2375-1.4584-0.50446-0.46736-1.7357-1.6015-2.1214-0.53032z"/>
  <path d="m108.76 16.69c-0.39291 2.1273 1.0908 2.7091 1.8562 3.6239 1.9207-0.06199 2.5919 1.3115 4.1101 1.6794 0.41648 1.6606 3.6485 2.3054 3.5357-0.08838-1.2117-2.4491-3.2402-3.6188-5.7454-4.6404-1.3141-0.10576-2.3097-0.61376-3.7567-0.57453z"/>
  <path d="m115.83 26.634c-1.31 0.71749-1.8889 1.9828-3.403 2.4307-0.65988 0.98535-0.5856 2.73 0.83969 1.4584 0.74071-1.5056 2.2073-0.89667 2.4308 0.53033 0.70152 0.81632 2.0462 0.7611 2.5633 1.6352 1.002-0.20821 0.94499-1.6634 1.8562-1.9446 0.30136-0.95994 3.4513 0.30261 2.4749-1.5468-1.6656 0.17538-3.7905-0.20173-3.4396-1.9919-1.93 0.32276-1.7312-1.3103-3.3223-0.57138z"/>
  <path d="m123.59 31.838s0.75496 1.3561 1.8303 1.4249c0.65486 0.56516 1.393 0.11518 1.4584-0.88389 2.5667 0.0087 0.1733-3.1774-1.5468-2.2097-1.221 0.79483-1.7689 1.5957-1.7419 1.6687z"/>
  <path d="m126.22 23.673c-0.67118 2.3128-3.2597 2.0198-3.8892 3.403 1.252 1.1503 3.2309 1.7826 5.7453 1.6352 1.904 0.67369 1.2959 3.9924 3.9776 3.8891 1.2824 0.54264 3.9558-0.08302 4.6405 1.1933 4.1712-0.83712 9.0358 0.15083 13.258 0.04419 0.7813-0.54111 0.80002-1.6846 1.9888-1.5468 0.12548-1.4717-0.4135-3.9143-1.6352-2.4749-3.6861 1.1809-8.0208-0.06792-12.463 0.44195 0.0352 1.9484-2.0869-0.22451-3.3146 0.13258-1.63 0.24257-1.8349-1.5059-2.4307-2.2981-0.27035-1.451-3.3068-0.58867-3.7566-1.9887-1.391-0.16527-3.2758 1.0917-1.9004-0.88388 1.4292-0.70632 0.90626-1.1844-0.22092-1.5468z"/>
  <path d="m127.41 34.589c0.0101 2.0731-2.6102 1.7642-1.6353 4.4194-0.11685 1.4985-0.12861 3.5587 1.7678 2.3423 1.76-0.19148 0.29026-3.2564 2.2982-3.0936 0.31099-1.0149 1.1853-1.4664 2.2098-1.7678 1.2998-1.7111-1.3918-2.0348-2.7401-1.9004-0.72436 1.3e-5 -1.4157-2.3e-5 -1.9004 1.7e-5z"/>
  <path d="m120.62 34.563c-0.44718 1.2298-2.931 1.0302-4 1.375-4.6235 1.6209-2.8351 4.1381-0.375 4.375 0.61387 0.95995 1.7071 1.6096 2.375 2.6875 2.6386-0.01506 5.7727-0.02344 4.6875-3.25-1.3431-0.09803-0.69422-2.4005-2.1875-2.5 0.31261-0.88019 2.0399-1.3735 0.9375-2.6875-0.36708-0.09407-1.2294-0.90381-1.4375 0z"/>
  <path d="m120.16 49.924c0.8899 0.69749 0.9984 1.2876 2.5191 0.48614 0.89544-0.25494 1.4507-1.0497 1.3259-2.2097-2.9478-0.8973-1.3989-3.2773-5.311-0.436-0.26404 1.3725 0.0986 2.0294 1.466 2.1596z"/>
  <path d="m92.41 21.949c-0.77367 3.1792 4.1689-0.18842 3.5355 2.74 0.04877 0.8595-2.332 0.83122-0.57452 1.5468 1.756-0.53586 1.9565-2.6257 3.9775-2.8285 0.76533-0.64138 2.4947-1.2589 1.9004-2.6517-0.75642-0.69715-3.3319-0.86772-3.9775 0.17678 0.0236 1.9732-1.4915 2.0362-3.182 1.591-0.24902-0.8702-0.95618-0.8448-1.6794-0.57451z"/>
  <path d="m89.449 24.159c-2.2221 0.36336-5.0123 0.72003-6.4082 1.8562-1.4523 0.8078-2.1834 1.8844-3.2262 2.7843 0.63271 2.1898 3.3815 0.11425 4.7288 0.97228-0.69394 1.1191-0.87981 2.0194 0.66291 1.149 0.79156-0.22061 3.8144-1.7024 1.7741-2.1749-0.9753-0.20799 1.1412-2.2777 3.6619-4.0123 0.09719-1.0522-1.1078-0.38136-1.1933-0.57453z"/>
  <path d="m85.206 33.572c-1.6085-0.59013-4.2799-0.69067-5.4801 0.39775-0.16768 1.5645-1.4287 2.5012-1.3258 4.1985-1.3622 0.40244-3.1499 2.1599-1.1491 2.8726 1.6426-0.17666 2.084 1.0667 2.5633 1.9887 1.5984-0.05378 3.5298-0.22314 3.6239-1.6352 1.9609-0.16889 2.8336-2.0394 4.4194-2.4307 0.54482-1.285 2.8-1.9456 3.886-2.7602-0.17377-2.5851-4.3729-1.4137-6.5376-2.6315z"/>
  <path d="m90.642 28.799c-1.3939 1.737-0.28259 3.0659 1.6352 2.961 1.4649 0.3062 3.764-0.41838 3.4472 1.7678-0.27532 2.4992 1.7591-0.09893 2.6517-0.0884 1.2365-0.62238 3.4276-0.30575 4.2869-1.3258 2.1388 0.0098 4.0037-0.31327 5.0824-1.4142-0.12176-1.5337-2.5974-0.7051-3.0495-1.9888-0.50202-0.54128-1.7106-3.3525-1.9888-1.149-0.53483 1.4245-2.032 5.1364-2.3424 3.5355-0.65124-1.075-1.2283-2.0095-3.182-1.7236-1.9081 5.68e-4 -2.8045-2.0205-4.8614-0.92808-0.6711 0.01815-1.2065 0.22171-1.6793 0.35358z"/>
  <path d="m92.969 37.469c-1.5913 0.43615-2.5602 1.4363-3.6875 2.0312-0.8894 0.44002-1.8314 1.2047-0.875 2.25 0.52168 2.2129 3.9499 2.5371 6.1875 1.75 1.5422-0.24975 2.7381 1.2655 1.0938 1.5312-1.9917 0.39171-5.0187-0.31091-5.375 1.7188 0.24927 1.6495 2.4954 1.0049 3.4062 2.0312 0.88528 0.44795 2.6441 0.26691 3.0625 1.1875 2.8555 0.18947 4.7514-1.1022 7.3434-1-0.11457-2.0493 2.8577-1.6748 4.3746-1.4375 1.2293 0.38262 1.8046 2.6478 2.9684 1.75 0.58883-0.77077 3.3839 0.58079 3.7184 0.5625 1.0645-0.26717-2.1833-2.9148-0.8438-3.7188 1.5953 0.07151 0.63329-2.4242-0.6874-1.9375-1.5527 0.30134-3.1779 0.30068-3.437-1.3125-1.1871-0.75936-0.35381-3.4889-1.8745-4-0.37504-1.2145 1.7336-3.6855-0.53135-3.8125-0.85785 1.9993-3.38 1.8283-3.4367 4.4375 0.23419 2.0857-1.362 1.113-1.656-0.0625-0.60159-1.1898-2.1432-1.3039-3.656-1.5-0.80121-1.5662-0.69292 1.5901-2.4375 0.84375-1.2879-0.69737-1.9076 0.11775-3.0312 0.1875-0.54636-0.43263-0.27104-1.2586-0.62595-1.5z"/>
  <path d="m6.0311 89.02c2.657 1.6715 3.2316-2.1528 0 0z"/>
  <path d="m4.375 90.625c-3.677 1.0564 2.4509 1.9598 0 0z"/>
  <path d="m18.794 159.95c5.0306-1.0666-3.216-1.8143 0 0z"/>
  <path d="m21.041 162.06c6.0508-1.3475-2.7324-2.8879 0 0z"/>
  <path d="m23.219 162.66c1.5396 5.0595 8.4294 2.9145 1.4795-0.91533-0.5083-0.44068-2.2811-0.11196-1.4795 0.91533z"/>
 </g>
</svg>
